<?xml version="1.0" encoding="utf-8"?>
<!-- Generator: Adobe Illustrator 25.4.1, SVG Export Plug-In . SVG Version: 6.00 Build 0)  -->
<svg version="1.1" id="Layer_1" xmlns="http://www.w3.org/2000/svg" xmlns:xlink="http://www.w3.org/1999/xlink" x="0px" y="0px"
	 viewBox="0 0 157 55.96" style="enable-background:new 0 0 157 55.96;" xml:space="preserve">
<style type="text/css">
	.st0{fill:#414042;}
	.st1{fill:#ED1C24;}
	.st2{fill:none;stroke:#ED1C24;stroke-width:4;stroke-miterlimit:10;}
</style>
<g>
	<line class="st0" x1="124.22" y1="53.36" x2="153.07" y2="29.55"/>
	<g>
		<path class="st1" d="M125.99,55.13c8.43-6.95,16.85-13.91,25.28-20.86c1.19-0.98,2.38-1.97,3.58-2.95c1.04-0.86,0.89-2.64,0-3.54
			c-1.03-1.03-2.49-0.86-3.54,0c-8.43,6.95-16.85,13.91-25.28,20.86c-1.19,0.98-2.38,1.97-3.58,2.95c-1.04,0.86-0.89,2.64,0,3.54
			C123.48,56.16,124.94,55.99,125.99,55.13L125.99,55.13z"/>
	</g>
</g>
<g>
	<line class="st0" x1="124.33" y1="2.47" x2="152.97" y2="26.55"/>
	<g>
		<path class="st1" d="M122.56,4.24c8.36,7.03,16.73,14.06,25.09,21.09c1.18,0.99,2.37,1.99,3.55,2.98c1.03,0.87,2.52,1.01,3.54,0
			c0.89-0.89,1.04-2.66,0-3.54c-8.36-7.03-16.73-14.06-25.09-21.09c-1.18-0.99-2.37-1.99-3.55-2.98c-1.03-0.87-2.52-1.01-3.54,0
			C121.67,1.6,121.52,3.37,122.56,4.24L122.56,4.24z"/>
	</g>
</g>
<g>
	<line class="st0" x1="92.29" y1="28.05" x2="154.58" y2="28.05"/>
	<g>
		<path class="st1" d="M92.29,30.55c7.02,0,14.04,0,21.07,0c11.18,0,22.37,0,33.55,0c2.56,0,5.11,0,7.67,0c3.22,0,3.22-5,0-5
			c-7.02,0-14.04,0-21.07,0c-11.18,0-22.37,0-33.55,0c-2.56,0-5.11,0-7.67,0C89.07,25.55,89.07,30.55,92.29,30.55L92.29,30.55z"/>
	</g>
</g>
<g>
	<line class="st0" x1="32.78" y1="2.6" x2="3.92" y2="26.42"/>
	<g>
		<path class="st1" d="M31.01,0.84C22.58,7.79,14.16,14.75,5.73,21.7c-1.19,0.98-2.38,1.97-3.58,2.95c-1.04,0.86-0.89,2.64,0,3.54
			c1.03,1.03,2.49,0.86,3.54,0c8.43-6.95,16.85-13.91,25.28-20.86c1.19-0.98,2.38-1.97,3.58-2.95c1.04-0.86,0.89-2.64,0-3.54
			C33.51-0.19,32.05-0.03,31.01,0.84L31.01,0.84z"/>
	</g>
</g>
<g>
	<line class="st0" x1="32.67" y1="53.49" x2="4.03" y2="29.42"/>
	<g>
		<path class="st1" d="M34.44,51.72c-8.36-7.03-16.73-14.06-25.09-21.09c-1.18-0.99-2.37-1.99-3.55-2.98
			c-1.03-0.87-2.52-1.01-3.54,0c-0.89,0.89-1.04,2.66,0,3.54c8.36,7.03,16.73,14.06,25.09,21.09c1.18,0.99,2.37,1.99,3.55,2.98
			c1.03,0.87,2.52,1.01,3.54,0C35.33,54.37,35.47,52.6,34.44,51.72L34.44,51.72z"/>
	</g>
</g>
<g>
	<line class="st0" x1="64.71" y1="27.92" x2="2.41" y2="27.92"/>
	<g>
		<path class="st1" d="M64.71,25.42c-7.02,0-14.04,0-21.07,0c-11.18,0-22.37,0-33.55,0c-2.56,0-5.11,0-7.67,0c-3.22,0-3.22,5,0,5
			c7.02,0,14.04,0,21.07,0c11.18,0,22.37,0,33.55,0c2.56,0,5.11,0,7.67,0C67.92,30.42,67.93,25.42,64.71,25.42L64.71,25.42z"/>
	</g>
</g>
<path class="st2" d="M82.7,34.06H74.3c-1,0-1.81-0.81-1.81-1.81v-8.41c0-1,0.81-1.81,1.81-1.81h8.41c1,0,1.81,0.81,1.81,1.81v8.41
	C84.51,33.25,83.7,34.06,82.7,34.06z"/>
</svg>
