<?xml version="1.0" encoding="utf-8"?>
<!-- Generator: Adobe Illustrator 25.4.1, SVG Export Plug-In . SVG Version: 6.00 Build 0)  -->
<svg version="1.1" id="Layer_1" xmlns="http://www.w3.org/2000/svg" xmlns:xlink="http://www.w3.org/1999/xlink" x="0px" y="0px"
	 viewBox="0 0 113.38 94.41" style="enable-background:new 0 0 113.38 94.41;" xml:space="preserve">
<style type="text/css">
	.st0{fill:#414042;}
	.st1{fill:#ED1C26;}
</style>
<g>
	<line class="st0" x1="2.5" y1="91.84" x2="110.88" y2="91.84"/>
	<g>
		<path class="st1" d="M2.5,94.34c3.59,0,7.18,0,10.76,0c8.62,0,17.24,0,25.86,0c10.43,0,20.86,0,31.29,0c9.02,0,18.05,0,27.07,0
			c4.39,0,8.81,0.16,13.2,0c0.06,0,0.13,0,0.19,0c3.22,0,3.22-5,0-5c-3.59,0-7.18,0-10.76,0c-8.62,0-17.24,0-25.86,0
			c-10.43,0-20.86,0-31.29,0c-9.02,0-18.05,0-27.07,0c-4.39,0-8.81-0.16-13.2,0c-0.06,0-0.13,0-0.19,0
			C-0.72,89.34-0.72,94.34,2.5,94.34L2.5,94.34z"/>
	</g>
</g>
<g>
	<line class="st0" x1="110.88" y1="54.43" x2="110.88" y2="91.84"/>
	<g>
		<path class="st1" d="M108.38,54.43c0,10.93,0,21.85,0,32.78c0,1.55,0,3.09,0,4.64c0,3.22,5,3.22,5,0c0-10.93,0-21.85,0-32.78
			c0-1.55,0-3.09,0-4.64C113.38,51.21,108.38,51.21,108.38,54.43L108.38,54.43z"/>
	</g>
</g>
<g>
	<line class="st0" x1="2.5" y1="54.43" x2="2.5" y2="91.84"/>
	<g>
		<path class="st1" d="M0,54.43c0,10.93,0,21.85,0,32.78c0,1.55,0,3.09,0,4.64c0,3.22,5,3.22,5,0c0-10.93,0-21.85,0-32.78
			c0-1.55,0-3.09,0-4.64C5,51.21,0,51.21,0,54.43L0,54.43z"/>
	</g>
</g>
<g>
	<line class="st0" x1="29.86" y1="34.35" x2="53.68" y2="63.2"/>
	<g>
		<path class="st1" d="M28.1,36.11c6.95,8.43,13.91,16.85,20.86,25.28c0.98,1.19,1.97,2.38,2.95,3.58c0.86,1.04,2.64,0.89,3.54,0
			c1.03-1.03,0.86-2.49,0-3.54c-6.95-8.43-13.91-16.85-20.86-25.28c-0.98-1.19-1.97-2.38-2.95-3.58c-0.86-1.04-2.64-0.89-3.54,0
			C27.07,33.61,27.23,35.07,28.1,36.11L28.1,36.11z"/>
	</g>
</g>
<g>
	<line class="st0" x1="80.75" y1="34.45" x2="56.68" y2="63.09"/>
	<g>
		<path class="st1" d="M78.98,32.69c-7.03,8.36-14.06,16.73-21.09,25.09c-0.99,1.18-1.99,2.37-2.98,3.55
			c-0.87,1.03-1.01,2.52,0,3.54c0.89,0.89,2.66,1.04,3.54,0c7.03-8.36,14.06-16.73,21.09-25.09c0.99-1.18,1.99-2.37,2.98-3.55
			c0.87-1.03,1.01-2.52,0-3.54C81.63,31.79,79.86,31.65,78.98,32.69L78.98,32.69z"/>
	</g>
</g>
<g>
	<line class="st0" x1="55.18" y1="2.41" x2="55.18" y2="64.71"/>
	<g>
		<path class="st1" d="M52.68,2.41c0,7.02,0,14.04,0,21.07c0,11.18,0,22.37,0,33.55c0,2.56,0,5.11,0,7.67c0,3.22,5,3.22,5,0
			c0-7.02,0-14.04,0-21.07c0-11.18,0-22.37,0-33.55c0-2.56,0-5.11,0-7.67C57.68-0.8,52.68-0.81,52.68,2.41L52.68,2.41z"/>
	</g>
</g>
</svg>
