<?xml version="1.0" encoding="utf-8"?>
<!-- Generator: Adobe Illustrator 25.4.1, SVG Export Plug-In . SVG Version: 6.00 Build 0)  -->
<svg version="1.1" id="Layer_1" xmlns="http://www.w3.org/2000/svg" xmlns:xlink="http://www.w3.org/1999/xlink" x="0px" y="0px"
	 viewBox="0 0 113.3 58.93" style="enable-background:new 0 0 113.3 58.93;" xml:space="preserve">
<style type="text/css">
	.st0{fill:#414042;}
	.st1{fill:#ED1C24;}
</style>
<g>
	<line class="st0" x1="2.5" y1="4.22" x2="2.5" y2="56.36"/>
	<g>
		<path class="st1" d="M0,4.22c0,5.86,0,11.73,0,17.59c0,9.36,0,18.71,0,28.07c0,2.16,0,4.32,0,6.48c0,3.22,5,3.22,5,0
			c0-5.86,0-11.73,0-17.59c0-9.36,0-18.71,0-28.07c0-2.16,0-4.32,0-6.48C5,1,0,0.99,0,4.22L0,4.22z"/>
	</g>
</g>
<g>
	<line class="st0" x1="110.75" y1="2.57" x2="110.75" y2="54.72"/>
	<g>
		<path class="st1" d="M108.25,2.57c0,5.86,0,11.73,0,17.59c0,9.36,0,18.71,0,28.07c0,2.16,0,4.32,0,6.48c0,3.22,5,3.22,5,0
			c0-5.86,0-11.73,0-17.59c0-9.36,0-18.71,0-28.07c0-2.16,0-4.32,0-6.48C113.25-0.65,108.25-0.65,108.25,2.57L108.25,2.57z"/>
	</g>
</g>
<g>
	<line class="st0" x1="2.5" y1="2.57" x2="110.88" y2="2.57"/>
	<g>
		<path class="st1" d="M2.5,5.07c3.59,0,7.18,0,10.76,0c8.62,0,17.24,0,25.86,0c10.43,0,20.86,0,31.29,0c9.02,0,18.05,0,27.07,0
			c4.39,0,8.81,0.16,13.2,0c0.06,0,0.13,0,0.19,0c3.22,0,3.22-5,0-5c-3.59,0-7.18,0-10.76,0c-8.62,0-17.24,0-25.86,0
			c-10.43,0-20.86,0-31.29,0c-9.02,0-18.05,0-27.07,0c-4.39,0-8.81-0.16-13.2,0c-0.06,0-0.13,0-0.19,0
			C-0.72,0.07-0.72,5.07,2.5,5.07L2.5,5.07z"/>
	</g>
</g>
<g>
	<line class="st0" x1="2.5" y1="56.36" x2="110.88" y2="56.36"/>
	<g>
		<path class="st1" d="M2.5,58.86c3.59,0,7.18,0,10.76,0c8.62,0,17.24,0,25.86,0c10.43,0,20.86,0,31.29,0c9.02,0,18.05,0,27.07,0
			c4.39,0,8.81,0.16,13.2,0c0.06,0,0.13,0,0.19,0c3.22,0,3.22-5,0-5c-3.59,0-7.18,0-10.76,0c-8.62,0-17.24,0-25.86,0
			c-10.43,0-20.86,0-31.29,0c-9.02,0-18.05,0-27.07,0c-4.39,0-8.81-0.16-13.2,0c-0.06,0-0.13,0-0.19,0
			C-0.72,53.86-0.72,58.86,2.5,58.86L2.5,58.86z"/>
	</g>
</g>
<g>
	<line class="st0" x1="2.5" y1="4.2" x2="55.53" y2="34.81"/>
	<g>
		<path class="st1" d="M1.24,6.35c6,3.46,12,6.93,18,10.39c9.48,5.47,18.96,10.95,28.45,16.42c2.19,1.27,4.38,2.53,6.58,3.8
			c2.79,1.61,5.31-2.71,2.52-4.32c-6-3.46-12-6.93-18-10.39C29.3,16.78,19.82,11.31,10.34,5.83C8.15,4.57,5.95,3.3,3.76,2.04
			C0.97,0.43-1.55,4.74,1.24,6.35L1.24,6.35z"/>
	</g>
</g>
<g>
	<line class="st0" x1="109.65" y1="4.2" x2="56.63" y2="34.81"/>
	<g>
		<path class="st1" d="M108.39,2.04c-6,3.46-12,6.93-18,10.39c-9.48,5.47-18.96,10.95-28.45,16.42c-2.19,1.27-4.38,2.53-6.58,3.8
			c-2.79,1.61-0.27,5.93,2.52,4.32c6-3.46,12-6.93,18-10.39c9.48-5.47,18.96-10.95,28.45-16.42c2.19-1.27,4.38-2.53,6.58-3.8
			C113.7,4.75,111.18,0.42,108.39,2.04L108.39,2.04z"/>
	</g>
</g>
<g>
	<line class="st0" x1="4.8" y1="55.49" x2="40.88" y2="28.64"/>
	<g>
		<path class="st1" d="M6.06,57.64c4.07-3.03,8.15-6.06,12.22-9.09c6.46-4.8,12.92-9.61,19.38-14.41c1.49-1.11,2.99-2.22,4.48-3.34
			c1.08-0.8,1.63-2.16,0.9-3.42c-0.62-1.07-2.33-1.71-3.42-0.9c-4.07,3.03-8.15,6.06-12.22,9.09c-6.46,4.8-12.92,9.61-19.38,14.41
			c-1.49,1.11-2.99,2.22-4.48,3.34c-1.08,0.8-1.63,2.16-0.9,3.42C3.26,57.81,4.97,58.45,6.06,57.64L6.06,57.64z"/>
	</g>
</g>
<g>
	<line class="st0" x1="109.31" y1="55.18" x2="72.78" y2="28.95"/>
	<g>
		<path class="st1" d="M110.57,53.02c-4.12-2.96-8.25-5.92-12.37-8.88c-6.54-4.69-13.08-9.39-19.62-14.08
			c-1.51-1.09-3.03-2.17-4.54-3.26c-1.1-0.79-2.78-0.19-3.42,0.9c-0.74,1.26-0.2,2.63,0.9,3.42c4.12,2.96,8.25,5.92,12.37,8.88
			c6.54,4.69,13.08,9.39,19.62,14.08c1.51,1.09,3.03,2.17,4.54,3.26c1.1,0.79,2.78,0.19,3.42-0.9
			C112.2,55.18,111.67,53.81,110.57,53.02L110.57,53.02z"/>
	</g>
</g>
</svg>
