<?xml version="1.0" encoding="utf-8"?>
<!-- Generator: Adobe Illustrator 25.4.1, SVG Export Plug-In . SVG Version: 6.00 Build 0)  -->
<svg version="1.1" id="Layer_1" xmlns="http://www.w3.org/2000/svg" xmlns:xlink="http://www.w3.org/1999/xlink" x="0px" y="0px"
	 viewBox="0 0 105.73 118.2" style="enable-background:new 0 0 105.73 118.2;" xml:space="preserve">
<style type="text/css">
	.st0{fill:none;stroke:#ED1C24;stroke-width:4;stroke-linecap:round;stroke-miterlimit:10;}
	.st1{fill:none;stroke:#ED1C24;stroke-width:4;stroke-miterlimit:10;}
	.st2{fill:#ED1C24;}
</style>
<path class="st0" d="M97.59,116.2H8.15c-3.4,0-6.15-2.75-6.15-6.15v-49.9C2,56.75,4.75,54,8.15,54h89.44c3.4,0,6.15,2.75,6.15,6.15
	v49.9C103.73,113.44,100.98,116.2,97.59,116.2z"/>
<ellipse class="st1" cx="54.15" cy="81.66" rx="9.23" ry="9.69"/>
<g>
	<g>
		<path class="st2" d="M20.42,51.66c-0.07-9.29-0.18-18.95,3.37-27.72c2.93-7.21,8.38-13.23,15.79-15.89
			c4.37-1.57,9.11-2.52,13.73-2.94c4.4-0.4,8.73-0.11,12.88,1.47c6.84,2.6,12.26,8.34,15.41,14.83c4.5,9.29,4.16,20.15,2.96,30.14
			c-0.16,1.34,1.26,2.5,2.5,2.5c1.49,0,2.34-1.15,2.5-2.5c1.2-10.03,1.33-20.59-2.52-30.11c-3.13-7.72-8.87-14.56-16.38-18.32
			c-9.08-4.54-19.45-3.49-28.97-0.96c-4.73,1.26-9.13,3.27-12.92,6.4c-3.3,2.73-6,6.25-7.98,10.04
			c-5.34,10.17-5.45,21.84-5.37,33.05C15.44,54.88,20.44,54.88,20.42,51.66L20.42,51.66z"/>
	</g>
</g>
<g>
	<g>
		<path class="st2" d="M51.65,92.32c0,3.52,0,7.03,0,10.55c0,1.31,1.15,2.56,2.5,2.5c1.35-0.06,2.5-1.1,2.5-2.5
			c0-3.52,0-7.03,0-10.55c0-1.31-1.15-2.56-2.5-2.5C52.8,89.88,51.65,90.91,51.65,92.32L51.65,92.32z"/>
	</g>
</g>
</svg>
