<?xml version="1.0" encoding="utf-8"?>
<!-- Generator: Adobe Illustrator 25.4.1, SVG Export Plug-In . SVG Version: 6.00 Build 0)  -->
<svg version="1.1" id="Layer_1" xmlns="http://www.w3.org/2000/svg" xmlns:xlink="http://www.w3.org/1999/xlink" x="0px" y="0px"
	 viewBox="0 0 151.93 74.68" style="enable-background:new 0 0 151.93 74.68;" xml:space="preserve">
<style type="text/css">
	.st0{fill:#E61D35;}
</style>
<g>
	<g>
		<path class="st0" d="M4.31,7.5C46.3,7.63,88.3,7.77,130.29,7.9c6.01,0.02,12.01,0.04,18.02,0.06c4.83,0.02,4.83-7.48,0-7.5
			c-41.99-0.13-83.99-0.27-125.98-0.4C16.32,0.04,10.32,0.02,4.31,0C-0.52-0.02-0.52,7.48,4.31,7.5L4.31,7.5z"/>
	</g>
</g>
<g>
	<g>
		<path class="st0" d="M3.62,40.75c41.99,0.13,83.99,0.27,125.98,0.4c6.01,0.02,12.01,0.04,18.02,0.06c4.83,0.02,4.83-7.48,0-7.5
			c-41.99-0.13-83.99-0.27-125.98-0.4c-6.01-0.02-12.01-0.04-18.02-0.06C-1.2,33.23-1.21,40.73,3.62,40.75L3.62,40.75z"/>
	</g>
</g>
<g>
	<g>
		<path class="st0" d="M3.62,74.23c41.99,0.13,83.99,0.27,125.98,0.4c6.01,0.02,12.01,0.04,18.02,0.06c4.83,0.02,4.83-7.48,0-7.5
			c-41.99-0.13-83.99-0.27-125.98-0.4c-6.01-0.02-12.01-0.04-18.02-0.06C-1.2,66.71-1.21,74.21,3.62,74.23L3.62,74.23z"/>
	</g>
</g>
</svg>
