<?xml version="1.0" encoding="utf-8"?>
<!-- Generator: Adobe Illustrator 25.4.1, SVG Export Plug-In . SVG Version: 6.00 Build 0)  -->
<svg version="1.1" id="Layer_1" xmlns="http://www.w3.org/2000/svg" xmlns:xlink="http://www.w3.org/1999/xlink" x="0px" y="0px"
	 viewBox="0 0 79.49 79.92" style="enable-background:new 0 0 79.49 79.92;" xml:space="preserve">
<style type="text/css">
	.st0{fill:#414042;}
	.st1{fill:#ED1C24;}
	.st2{fill:none;stroke:#ED1C24;stroke-width:4;stroke-miterlimit:10;}
</style>
<g>
	<line class="st0" x1="45.27" y1="47.16" x2="76.71" y2="77.68"/>
	<g>
		<path class="st1" d="M43.5,48.93c3.53,3.43,7.07,6.86,10.6,10.3c5.64,5.48,11.28,10.95,16.92,16.43c1.3,1.27,2.61,2.53,3.91,3.8
			c2.31,2.24,5.85-1.29,3.54-3.54c-3.53-3.43-7.07-6.86-10.6-10.3c-5.64-5.48-11.28-10.95-16.92-16.43c-1.3-1.27-2.61-2.53-3.91-3.8
			C44.73,43.15,41.19,46.68,43.5,48.93L43.5,48.93z"/>
	</g>
</g>
<circle class="st2" cx="24.96" cy="24.46" r="22.7"/>
</svg>
