<?xml version="1.0" encoding="utf-8"?>
<!-- Generator: Adobe Illustrator 25.4.1, SVG Export Plug-In . SVG Version: 6.00 Build 0)  -->
<svg version="1.1" id="Layer_1" xmlns="http://www.w3.org/2000/svg" xmlns:xlink="http://www.w3.org/1999/xlink" x="0px" y="0px"
	 viewBox="0 0 79.49 79.92" style="enable-background:new 0 0 79.49 79.92;" xml:space="preserve">
<style type="text/css">
	.st0{fill:#414042;}
	.st1{fill:#ED1C24;}
</style>
<g>
	<line class="st0" x1="2.52" y1="3.82" x2="76.97" y2="76.1"/>
	<g>
		<path class="st1" d="M0.75,5.59c2.46,2.39,4.93,4.78,7.39,7.18C14.06,18.51,19.98,24.25,25.9,30
			c7.19,6.98,14.38,13.97,21.58,20.95c6.19,6.01,12.38,12.02,18.57,18.03c3,2.92,5.93,5.95,9.03,8.77c0.04,0.04,0.08,0.08,0.13,0.12
			c2.31,2.24,5.85-1.29,3.54-3.54c-2.46-2.39-4.93-4.78-7.39-7.18c-5.92-5.75-11.84-11.49-17.75-17.24
			c-7.19-6.98-14.38-13.97-21.58-20.95c-6.19-6.01-12.38-12.02-18.57-18.03c-3-2.92-5.93-5.95-9.03-8.77
			C4.37,2.14,4.33,2.09,4.29,2.05C1.98-0.19-1.56,3.34,0.75,5.59L0.75,5.59z"/>
	</g>
</g>
<g>
	<line class="st0" x1="4.18" y1="77.39" x2="75.31" y2="2.53"/>
	<g>
		<path class="st1" d="M5.95,79.16c2.36-2.48,4.71-4.96,7.07-7.44C18.68,65.76,24.34,59.8,30,53.85
			c6.85-7.21,13.7-14.41,20.55-21.62c5.92-6.23,11.85-12.46,17.77-18.7c2.88-3.03,5.85-5.99,8.64-9.1C77,4.39,77.04,4.35,77.08,4.3
			c2.22-2.33-1.31-5.87-3.54-3.54c-2.36,2.48-4.71,4.96-7.07,7.44c-5.66,5.96-11.32,11.91-16.98,17.87
			c-6.85,7.21-13.7,14.41-20.55,21.62c-5.92,6.23-11.85,12.46-17.77,18.7c-2.88,3.03-5.85,5.99-8.64,9.1
			c-0.04,0.04-0.08,0.09-0.12,0.13C0.19,77.95,3.72,81.49,5.95,79.16L5.95,79.16z"/>
	</g>
</g>
</svg>
