<?xml version="1.0" encoding="utf-8"?>
<!-- Generator: Adobe Illustrator 25.4.1, SVG Export Plug-In . SVG Version: 6.00 Build 0)  -->
<svg version="1.1" id="Layer_1" xmlns="http://www.w3.org/2000/svg" xmlns:xlink="http://www.w3.org/1999/xlink" x="0px" y="0px"
	 viewBox="0 0 167.58 135.73" style="enable-background:new 0 0 167.58 135.73;" xml:space="preserve">
<style type="text/css">
	.st0{fill:#79BF82;}
	.st1{fill:#66BD5E;}
	.st2{fill:#8E4F9F;}
	.st3{fill:#58C6D2;}
	.st4{fill:#67BD45;}
</style>
<g>
	<g>
		<path class="st0" d="M42.75,52.48c7.35-1.38,14.07-5.71,18.26-11.92c0.47-0.69,0.9-1.41,1.28-2.16c0.19-0.37,0.37-0.74,0.54-1.13
			c0.07-0.16,0.14-0.33,0.21-0.49c0.15-0.35,0.62-0.87-0.04-0.51c-0.57,0.32-0.26,0.18,0.13,0.33c0.39,0.15,0.75,0.39,1.13,0.57
			c0.87,0.42,1.78,0.8,2.71,1.1c3.46,1.13,7.21,1.21,10.77,0.55c3.94-0.73,7.7-2.64,10.53-5.49c-1.01,0.13-2.02,0.26-3.03,0.39
			c1.16,0.89,1.86,2.36,2.63,3.56c1.06,1.63,2.26,3.08,3.89,4.16c3.09,2.03,7.04,2.24,10.62,2.2c0.83-0.01,1.66-0.04,2.49-0.06
			c0.44-0.01,0.88-0.02,1.32-0.03c0.18,0,0.7,0.05,0.81,0c0.32-0.16-0.11-0.03-0.04-0.1c-0.16,0.16-0.17-1-0.12-0.05
			c-0.01-0.1,0.01,0.02,0.03,0.12c0.06,0.36,0.03,0.75,0.04,1.11c0.03,0.89,0.13,1.78,0.3,2.65c0.66,3.34,2.67,6.47,5.22,8.69
			c3.18,2.77,7.12,4.39,11.34,4.56c-0.42-1.55-0.84-3.11-1.26-4.66c-9.57,4.06-16.6,13.05-17.78,23.41c0.61-0.8,1.22-1.61,1.84-2.41
			c-3.1,0.49-6.3,0.05-9.42,0.06c-3.2,0.01-6.41,0.48-9.23,2.06c-4.8,2.69-7.45,7.8-9.6,12.64c1.44,0,2.88,0,4.32,0
			C78.68,85.05,74.43,78.28,67.85,74c-6.28-4.09-14.35-5.47-21.31-2.38c1.22,0.94,2.45,1.88,3.67,2.82
			c0.83-4.87,1.32-10.02-0.25-14.8c-1.35-4.12-4.02-7.73-7.83-9.88c-2.8-1.59-5.33,2.73-2.52,4.32c6.8,3.85,6.94,12.22,5.77,19.04
			C45,75.37,47,76.85,49.06,75.94c5.51-2.45,12.19-0.48,16.9,2.81c5.46,3.82,8.99,9.81,12.36,15.41c0.88,1.47,3.52,1.78,4.32,0
			c1.84-4.13,3.92-8.81,8.12-11.01c2.35-1.24,5.12-1.26,7.71-1.19c3.17,0.07,6.28,0.25,9.43-0.25c1.16-0.18,1.72-1.4,1.84-2.41
			c0.99-8.66,7.5-15.78,15.31-19.09c1-0.42,1.41-1.86,1.15-2.82c-0.3-1.09-1.31-1.79-2.41-1.84c-5.66-0.23-11.63-4.78-11.86-10.73
			c-0.07-1.76-0.14-3.52-1.42-4.89c-1.51-1.6-3.82-1.38-5.81-1.33c-3.07,0.08-6.64,0.44-9.5-0.94c-1.57-0.76-2.48-2.05-3.38-3.49
			c-1.15-1.82-2.32-3.43-4.04-4.75c-0.86-0.66-2.32-0.33-3.03,0.39c-4.37,4.4-11.54,5.62-17.26,3.36c-1.66-0.66-3.13-1.75-5-1.68
			c-2.47,0.1-3.33,1.99-4.27,3.92c-1.47,3.02-3.67,5.66-6.35,7.7c-3.07,2.34-6.66,3.85-10.44,4.56c-1.33,0.25-2.08,1.85-1.75,3.08
			C40.06,52.13,41.42,52.73,42.75,52.48L42.75,52.48z"/>
	</g>
</g>
<g>
	<g>
		<path class="st1" d="M24.53,47.33c10.65-2.14,20.18-8.98,25.87-18.2c0.65-1.04,1.24-2.12,1.77-3.23c0.27-0.55,0.52-1.11,0.76-1.68
			c0.25-0.59,0.81-1.48,0.88-2.12c0.03-0.25,0.34-0.23-0.13-0.13c0.29-0.06,0.36,0.04,0.6,0.11c0.61,0.17,1.16,0.53,1.72,0.84
			c1.21,0.67,2.47,1.26,3.76,1.75c4.85,1.86,10.23,2.11,15.3,1.15c5.75-1.09,11.2-4.02,15.13-8.37c-1.18,0-2.36,0-3.54,0
			c2.04,1.66,3.21,3.93,4.51,6.16c1.41,2.42,3.01,4.63,5.29,6.3c4.4,3.23,10.21,3.49,15.46,3.4c1.27-0.02,2.54-0.07,3.8-0.1
			c0.67-0.02,2.65-0.3,3.03-0.03c0.53,0.37,0.44,1.86,0.45,2.51c0.03,1.39,0.12,2.75,0.35,4.12c0.82,5.02,3.54,9.73,7.16,13.25
			c4.27,4.15,9.9,6.73,15.87,6.97c-0.42-1.55-0.84-3.11-1.26-4.66c-14.02,6.42-23.72,20.47-25.28,35.73
			c0.61-0.8,1.22-1.61,1.84-2.41c-7.29,1.28-14.79-0.96-22.01,1.1c-6.32,1.81-10.86,6.69-14.03,12.25c-1.8,3.16-3.22,6.53-4.6,9.9
			c1.52-0.2,3.05-0.4,4.57-0.6c-4.26-7.71-8.64-15.52-14.8-21.91c-5.97-6.2-13.66-10.61-22.3-11.57c-4.76-0.53-9.52,0.28-13.82,2.38
			c1.22,0.94,2.45,1.88,3.67,2.82c1.17-7.4,1.84-15.12-0.3-22.41C32.5,54.56,28.84,49,23.36,45.68c-2.76-1.67-5.27,2.65-2.52,4.32
			c10.73,6.52,10.64,20.83,8.91,31.72c-0.35,2.19,1.61,3.83,3.67,2.82c6.5-3.18,14.31-1.98,20.57,1.21
			c7.02,3.58,12.25,9.67,16.51,16.17c2.53,3.86,4.77,7.89,7,11.92c1.14,2.07,3.81,1.26,4.57-0.6c2.56-6.25,5.59-13.54,11.67-17.16
			c3.52-2.1,7.6-2.35,11.6-2.27c4.66,0.09,9.25,0.48,13.87-0.33c1.15-0.2,1.73-1.38,1.84-2.41c1.39-13.58,10.47-25.76,22.81-31.41
			c2.4-1.1,1.02-4.57-1.26-4.66c-9.01-0.35-17.33-8.1-18.28-17.1c-0.26-2.45,0.15-5.08-1.24-7.27c-1.76-2.77-5.04-2.51-7.91-2.43
			c-4.66,0.14-10.08,0.68-14.38-1.52c-5.22-2.67-6.19-9.21-10.59-12.79c-1.01-0.82-2.56-1.08-3.54,0
			c-6.36,7.02-17.12,9.44-25.89,5.8c-2.43-1.01-4.65-2.96-7.43-2.71c-3.53,0.31-4.19,3.72-5.47,6.37c-2.25,4.65-5.5,8.69-9.47,11.97
			c-4.37,3.61-9.64,6.04-15.18,7.16c-1.32,0.27-2.09,1.84-1.75,3.08C21.84,46.96,23.2,47.6,24.53,47.33L24.53,47.33z"/>
	</g>
</g>
<g>
	<g>
		<path class="st2" d="M96.08,42.05c-2.55-3.08-5.85-5.47-9.53-7.01c-3.62-1.52-7.94-2.49-11.84-1.62c-4,0.89-6.5,4.5-6.02,8.55
			c0.5,4.28,3.54,7.23,7.1,9.32c6.08,3.57,14.07,6.72,16.7,13.93c1.01,2.76,1.27,6.11-0.09,8.8c-1.53,3.03-4.7,4.29-7.94,4.52
			c-4.14,0.3-8.9-0.16-12.67-2c-3.64-1.77-6.57-5.12-6.23-9.37c0.11-1.35-1.23-2.5-2.5-2.5c-1.44,0-2.39,1.15-2.5,2.5
			c-0.33,4.12,1.66,8.2,4.67,10.94c3.23,2.94,7.48,4.42,11.74,5.03c4.02,0.57,8.38,0.84,12.29-0.48c3.83-1.29,6.74-3.98,8.17-7.77
			c2.79-7.37-1.03-15.29-6.65-20.1c-3.14-2.68-6.71-4.72-10.34-6.65c-2.75-1.46-6.75-3.4-6.83-7.02c-0.09-4.12,5.76-3.08,8.33-2.39
			c4.2,1.11,7.83,3.53,10.59,6.87c0.86,1.04,2.64,0.89,3.54,0C97.11,44.56,96.94,43.1,96.08,42.05L96.08,42.05z"/>
	</g>
</g>
<g>
	<g>
		<path class="st3" d="M81.92,29.53c-0.34,20.56-1.74,41.09-4.2,61.5c-0.16,1.34,1.26,2.5,2.5,2.5c1.49,0,2.34-1.15,2.5-2.5
			c2.46-20.41,3.86-40.95,4.2-61.5C86.97,26.32,81.97,26.31,81.92,29.53L81.92,29.53z"/>
	</g>
</g>
<g>
	<g>
		<path class="st4" d="M5.5,44.34c14.21-2.84,26.92-11.97,34.47-24.29c0.96-1.56,1.83-3.18,2.6-4.84c0.4-0.86,0.77-1.73,1.13-2.61
			c0.28-0.69,0.46-1.62,0.96-2.2c0.75-0.88,2.48,0.26,3.3,0.71c1.6,0.88,3.19,1.7,4.89,2.39c6.49,2.65,13.74,3.11,20.6,1.86
			c7.7-1.41,15.02-5.28,20.28-11.11c-1.18,0-2.36,0-3.54,0c2.72,2.19,4.33,5.22,6.06,8.19c1.87,3.22,3.95,6.23,6.98,8.47
			c5.84,4.31,13.57,4.61,20.54,4.48c1.77-0.03,3.55-0.1,5.32-0.15c1.26-0.03,3.72-0.5,4.6,0.47c0.64,0.7,0.65,2.4,0.68,3.47
			c0.05,1.79,0.13,3.54,0.4,5.32c1.03,6.74,4.62,13.06,9.48,17.78c5.59,5.43,12.98,8.87,20.81,9.15c-0.42-1.55-0.84-3.11-1.26-4.66
			c-14.4,6.57-25.57,19.36-30.8,34.24c-1.5,4.28-2.43,8.72-2.89,13.23c0.61-0.8,1.22-1.61,1.84-2.41
			c-9.77,1.74-19.84-1.25-29.52,1.44c-8.46,2.35-14.47,8.91-18.68,16.33c-2.36,4.16-4.22,8.58-6.03,13c1.52-0.2,3.05-0.4,4.57-0.6
			c-5.69-10.28-11.52-20.7-19.7-29.24c-7.94-8.29-18.18-14.24-29.71-15.52c-6.22-0.69-12.5,0.34-18.12,3.1
			c1.22,0.94,2.45,1.88,3.67,2.82c1.56-9.83,2.44-20.1-0.4-29.79C15.7,55.4,10.91,48.05,3.72,43.71c-2.76-1.67-5.28,2.65-2.52,4.32
			c6.2,3.74,10.19,10.18,12.13,17.04c2.45,8.69,1.7,17.96,0.3,26.76c-0.35,2.18,1.61,3.84,3.67,2.82c9.05-4.44,19.88-2.82,28.6,1.62
			c9.55,4.86,16.7,13.13,22.5,21.96c3.46,5.26,6.53,10.77,9.57,16.28c1.14,2.07,3.81,1.26,4.57-0.6c2.87-7.02,6.02-14.39,11.4-19.88
			c2.63-2.68,5.78-4.76,9.4-5.83c4.41-1.31,9.05-1.24,13.6-1.07c5.47,0.19,10.91,0.49,16.33-0.48c1.15-0.21,1.73-1.38,1.84-2.41
			c1.45-14.41,9.33-27.99,20.72-36.84c3.23-2.51,6.77-4.61,10.49-6.3c2.39-1.09,1.02-4.58-1.26-4.66
			c-12.51-0.45-23.71-10.95-25.47-23.27c-0.46-3.21,0.27-6.81-1.44-9.74c-2.2-3.77-6.62-3.25-10.38-3.14
			c-6.41,0.19-13.72,0.83-19.63-2.2C101,14.42,99.75,5.57,93.73,0.72c-1.01-0.81-2.55-1.09-3.54,0c-8.77,9.72-23.56,12.95-35.68,8.1
			C51.2,7.49,48.03,4.6,44.25,5.19c-4.14,0.64-4.9,5.33-6.46,8.49c-3.09,6.25-7.53,11.7-12.92,16.1
			c-5.97,4.88-13.14,8.22-20.69,9.73c-1.32,0.26-2.09,1.84-1.75,3.08C2.81,43.98,4.17,44.61,5.5,44.34L5.5,44.34z"/>
	</g>
</g>
</svg>
